<svg xmlns="http://www.w3.org/2000/svg" xmlns:xlink="http://www.w3.org/1999/xlink" width="500pt" height="300pt" viewBox="170 120 500 300" version="1.1" style="">
<g id="surface1">
<path style="stroke:none;fill-rule:evenodd;fill: transparent;fill-opacity:1;" d="M 55.769531 35.828125 L 786.117188 35.828125 C 794.980469 35.828125 802.230469 43.078125 802.230469 51.9375 L 802.230469 530.648438 C 802.230469 539.503906 794.980469 546.75 786.117188 546.75 L 55.769531 546.75 C 46.914063 546.75 39.660156 539.503906 39.660156 530.648438 L 39.660156 51.9375 C 39.660156 43.078125 46.910156 35.828125 55.769531 35.828125 "/>
<path style=" stroke:none;fill-rule:evenodd;fill:rgb(95.762634%,44.548035%,8.47168%);fill-opacity:1;" d="M 412.074219 429.203125 L 384.992188 415.234375 L 412.082031 401.265625 L 439.683594 387.035156 L 439.683594 402.421875 L 441.691406 402.417969 C 489.046875 402.308594 568.761719 394.890625 637.558594 374.34375 C 692.566406 357.914063 758.238281 327.402344 758.734375 275.328125 C 758.914063 256.609375 747.007813 239.882813 723.351563 225.613281 C 703.21875 213.472656 673.8125 202.683594 635.945313 193.554688 C 600.140625 184.917969 551.1875 175.4375 439.375 164.363281 C 446.535156 164.203125 453.8125 164.125 461.175781 164.125 C 572.714844 164.125 710.136719 182.601563 761.316406 234.453125 C 775.355469 248.679688 782.359375 264.90625 782.125 282.691406 C 781.371094 340.617188 714.023438 375.539063 657.65625 394.632813 C 584.636719 419.371094 500.71875 428.152344 451.050781 428.15625 L 451.03125 428.15625 C 447.859375 428.15625 444.730469 428.121094 441.730469 428.054688 L 439.683594 428.003906 L 439.6875 443.433594 Z M 412.074219 429.203125 "/>
<path style=" stroke:none;fill-rule:nonzero;fill:rgb(100%,100%,100%);fill-opacity:1;" d="M 461.171875 162.125 C 442.898438 162.125 425.476563 162.621094 409.507813 163.519531 C 548.394531 176.355469 757.46875 198.699219 756.734375 275.308594 C 755.859375 367.714844 543.292969 400.1875 441.6875 400.417969 L 441.6875 383.753906 L 411.164063 399.488281 L 380.628906 415.234375 L 411.15625 430.980469 L 441.691406 446.714844 L 441.6875 430.050781 C 444.710938 430.121094 447.824219 430.15625 451.050781 430.15625 C 561.007813 430.15625 782.734375 389.632813 784.125 282.714844 C 785.335938 189.949219 598.542969 162.125 461.171875 162.125 M 476.753906 166.242188 C 532.351563 167.085938 587.03125 172.417969 632.230469 181.46875 C 661.085938 187.25 686.296875 194.53125 707.15625 203.121094 C 729.984375 212.519531 747.726563 223.53125 759.894531 235.859375 C 773.542969 249.6875 780.351563 265.4375 780.125 282.664063 C 779.386719 339.421875 712.769531 373.851563 657.015625 392.742188 C 584.21875 417.402344 500.566406 426.15625 451.050781 426.15625 C 447.878906 426.15625 444.761719 426.121094 441.777344 426.050781 L 437.683594 425.960938 L 437.6875 430.050781 L 437.6875 440.152344 L 412.992188 427.425781 L 389.355469 415.234375 L 412.996094 403.042969 L 437.6875 390.316406 L 437.6875 404.425781 L 441.695313 404.417969 C 489.1875 404.308594 569.125 396.871094 638.128906 376.261719 C 674.523438 365.390625 703.351563 352.1875 723.808594 337.023438 C 748.09375 319.019531 760.515625 298.269531 760.734375 275.347656 C 760.917969 255.871094 748.691406 238.5625 724.386719 223.902344 C 704.078125 211.652344 674.480469 200.789063 636.414063 191.609375 C 604.785156 183.984375 562.921875 175.695313 476.753906 166.242188 "/>
<path style=" stroke:none;fill-rule:evenodd;fill:rgb(95.762634%,44.548035%,8.47168%);fill-opacity:1;" d="M 390.023438 383.148438 C 278.480469 383.148438 141.058594 364.671875 89.875 312.816406 C 75.835938 298.59375 68.835938 282.363281 69.070313 264.582031 C 69.824219 206.65625 137.171875 171.734375 193.535156 152.636719 C 266.5625 127.898438 350.476563 119.117188 400.144531 119.117188 C 403.328125 119.117188 406.460938 119.152344 409.464844 119.222656 L 411.507813 119.265625 L 411.503906 103.839844 L 439.121094 118.066406 L 466.199219 132.039063 L 439.113281 146.007813 L 411.507813 160.234375 L 411.507813 144.851563 L 409.503906 144.855469 C 362.148438 144.964844 282.433594 152.378906 213.636719 172.929688 C 158.628906 189.355469 92.953125 219.871094 92.460938 271.945313 C 92.28125 290.664063 104.183594 307.390625 127.839844 321.660156 C 147.976563 333.800781 177.382813 344.589844 215.246094 353.71875 C 251.054688 362.351563 300.003906 371.835938 411.820313 382.910156 C 404.660156 383.066406 397.382813 383.148438 390.023438 383.148438 "/>
<path style=" stroke:none;fill-rule:nonzero;fill:rgb(100%,100%,100%);fill-opacity:1;" d="M 409.503906 100.558594 L 409.507813 117.222656 C 406.484375 117.152344 403.371094 117.117188 400.144531 117.117188 C 290.1875 117.117188 68.460938 157.640625 67.066406 264.558594 C 65.859375 357.324219 252.652344 385.148438 390.023438 385.148438 C 408.300781 385.148438 425.71875 384.65625 441.6875 383.753906 C 302.800781 370.917969 93.726563 348.574219 94.460938 271.964844 C 95.335938 179.558594 307.898438 147.085938 409.507813 146.855469 L 409.507813 163.515625 L 440.03125 147.785156 L 470.5625 132.039063 L 440.035156 116.289063 Z M 413.507813 107.121094 L 438.203125 119.84375 L 461.839844 132.039063 L 438.195313 144.230469 L 413.507813 156.957031 L 413.507813 142.84375 L 409.5 142.855469 C 362.007813 142.964844 282.066406 150.402344 213.066406 171.011719 C 176.671875 181.882813 147.84375 195.082031 127.386719 210.25 C 103.101563 228.253906 90.679688 249.003906 90.460938 271.925781 C 90.273438 291.402344 102.503906 308.710938 126.808594 323.371094 C 147.117188 335.621094 176.714844 346.484375 214.777344 355.664063 C 246.40625 363.289063 288.265625 371.578125 374.4375 381.027344 C 318.84375 380.183594 264.167969 374.851563 218.972656 365.804688 C 190.113281 360.023438 164.902344 352.742188 144.039063 344.152344 C 121.210938 334.753906 103.46875 323.742188 91.300781 311.414063 C 77.648438 297.582031 70.84375 281.835938 71.066406 264.609375 C 71.808594 207.851563 138.421875 173.421875 194.179688 154.53125 C 266.976563 129.871094 350.628906 121.117188 400.144531 121.117188 C 403.316406 121.117188 406.433594 121.152344 409.417969 121.21875 L 413.511719 121.3125 L 413.507813 117.21875 L 413.507813 107.121094 "/>
<path style=" stroke:none;fill-rule:evenodd;fill:rgb(100%,100%,100%);fill-opacity:1;" d="M 187.714844 264.960938 L 198.511719 264.960938 C 203.542969 264.960938 207.601563 263.5625 210.710938 260.742188 C 213.820313 257.917969 215.292969 254.546875 215.128906 250.648438 C 214.875 244.75 211.378906 241.789063 204.65625 241.789063 L 192.078125 241.789063 Z M 163.449219 222.285156 L 210.453125 222.285156 C 219.296875 222.285156 226.015625 223.292969 230.601563 225.269531 C 235.167969 227.265625 238.714844 230.226563 241.242188 234.148438 C 243.769531 238.074219 245.160156 242.890625 245.398438 248.578125 C 245.707031 255.96875 243.871094 262.53125 239.898438 268.285156 C 235.949219 274.046875 230.824219 278.207031 224.542969 280.699219 C 218.289063 283.203125 209.5 284.46875 198.199219 284.46875 L 184.011719 284.46875 L 177.511719 320.828125 L 145.246094 320.828125 L 157.808594 252.886719 L 150.375 252.917969 Z M 163.449219 222.285156 "/>
<path style=" stroke:none;fill-rule:evenodd;fill:rgb(100%,100%,100%);fill-opacity:1;" d="M 296.703125 262.058594 L 308.777344 262.058594 C 312.316406 262.058594 315.320313 261.269531 317.785156 259.691406 C 320.234375 258.09375 321.769531 255.75 322.359375 252.667969 C 323.578125 246.386719 320.578125 243.234375 313.355469 243.234375 L 300.34375 243.234375 Z M 350.273438 320.828125 L 314.878906 320.828125 L 292.632813 283.148438 L 285.351563 320.828125 L 257.140625 320.828125 L 270.265625 252.867188 L 261.789063 252.851563 L 276.175781 222.285156 L 324.210938 222.285156 C 334.785156 222.285156 342.5 224.949219 347.335938 230.269531 C 352.171875 235.59375 353.757813 242.59375 352.078125 251.3125 C 350.988281 256.980469 348.941406 262.015625 345.929688 266.375 C 342.929688 270.707031 331.628906 279.601563 323.691406 280.347656 Z M 350.273438 320.828125 "/>
<path style=" stroke:none;fill-rule:evenodd;fill:rgb(100%,100%,100%);fill-opacity:1;" d="M 417.972656 222.285156 L 400.417969 320.828125 L 370.4375 320.828125 L 382.605469 252.515625 L 375.175781 252.515625 L 387.984375 222.285156 Z M 417.972656 222.285156 "/>
<path style=" stroke:none;fill-rule:evenodd;fill:rgb(100%,100%,100%);fill-opacity:1;" d="M 423.035156 320.828125 L 453.046875 245.65625 L 444.328125 245.65625 L 462.382813 222.285156 L 495.136719 222.285156 L 506.566406 273.40625 L 541.695313 222.285156 L 573.253906 222.285156 L 573.238281 320.828125 L 542.882813 320.828125 L 542.734375 263.660156 L 503.867188 321.496094 L 490.839844 320.828125 L 475.078125 263.660156 L 453.464844 320.828125 Z M 423.035156 320.828125 "/>
<path style=" stroke:none;fill-rule:evenodd;fill:rgb(100%,100%,100%);fill-opacity:1;" d="M 664.546875 283.800781 L 661.128906 247.890625 L 660.8125 247.890625 L 641.53125 283.800781 Z M 702.296875 320.828125 L 668.3125 320.828125 L 666.769531 304.695313 L 630.191406 304.695313 L 621.46875 320.828125 L 584.109375 320.828125 L 632.457031 245.65625 L 622.929688 245.65625 L 647.480469 222.285156 L 684.457031 222.285156 Z M 702.296875 320.828125 "/>





</g>
</svg>